<svg width="24" height="22" viewBox="0 0 24 22" fill="none" xmlns="http://www.w3.org/2000/svg">
<g filter="url(#filter0_d_5_44)">
<path d="M6.5 14C5.25267 14 4.191 13.5647 3.315 12.694C2.43833 11.8247 2 10.7657 2 9.517C2 8.371 2.39167 7.354 3.175 6.466C3.95833 5.578 4.932 5.101 6.096 5.035C6.32067 3.57833 6.99067 2.375 8.106 1.425C9.22133 0.475 10.5193 0 12 0C13.668 0 15.085 0.583 16.251 1.749C17.417 2.915 18 4.332 18 6V7H18.616C19.5733 7.03067 20.3767 7.38233 21.026 8.055C21.6753 8.72767 22 9.54267 22 10.5C22 11.4807 21.662 12.3093 20.986 12.986C20.3087 13.662 19.48 14 18.5 14H6.5Z" fill="#B8F8FF"/>
</g>
<defs>
<filter id="filter0_d_5_44" x="-2" y="0" width="28" height="22" filterUnits="userSpaceOnUse" color-interpolation-filters="sRGB">
<feFlood flood-opacity="0" result="BackgroundImageFix"/>
<feColorMatrix in="SourceAlpha" type="matrix" values="0 0 0 0 0 0 0 0 0 0 0 0 0 0 0 0 0 0 127 0" result="hardAlpha"/>
<feOffset dy="4"/>
<feGaussianBlur stdDeviation="2"/>
<feComposite in2="hardAlpha" operator="out"/>
<feColorMatrix type="matrix" values="0 0 0 0 0 0 0 0 0 0 0 0 0 0 0 0 0 0 0.25 0"/>
<feBlend mode="normal" in2="BackgroundImageFix" result="effect1_dropShadow_5_44"/>
<feBlend mode="normal" in="SourceGraphic" in2="effect1_dropShadow_5_44" result="shape"/>
</filter>
</defs>
</svg>
