<svg width="18" height="18" viewBox="0 0 18 18" fill="none" xmlns="http://www.w3.org/2000/svg">
<path fill-rule="evenodd" clip-rule="evenodd" d="M9 0C4.03403 0 0 4.03403 0 9C0 13.966 4.03403 18 9 18C13.966 18 18 13.966 18 9C18 4.03403 13.966 0 9 0Z" fill="#FFCA28"/>
<path fill-rule="evenodd" clip-rule="evenodd" d="M9 0C8.87031 0 8.74165 0.00437122 8.61328 0.00981903C13.4001 0.212966 17.2266 4.16373 17.2266 9C17.2266 13.8363 13.4001 17.787 8.61328 17.9902C8.74165 17.9956 8.87031 18 9 18C13.966 18 18 13.966 18 9C18 4.03404 13.966 0 9 0Z" fill="#FFC107"/>
<path fill-rule="evenodd" clip-rule="evenodd" d="M9 1.72266C4.98542 1.72266 1.72266 4.98542 1.72266 9C1.72266 13.0146 4.98542 16.2773 9 16.2773C13.0146 16.2773 16.2773 13.0146 16.2773 9C16.2773 4.98542 13.0146 1.72266 9 1.72266Z" fill="#FFF8E1"/>
<path fill-rule="evenodd" clip-rule="evenodd" d="M9 1.72266C8.87025 1.72266 8.74137 1.72636 8.61328 1.73309C12.4485 1.93464 15.5039 5.11517 15.5039 9C15.5039 12.8848 12.4485 16.0654 8.61328 16.2669C8.74137 16.2736 8.87025 16.2773 9 16.2773C13.0146 16.2773 16.2773 13.0146 16.2773 9C16.2773 4.98543 13.0146 1.72266 9 1.72266Z" fill="#FFECB3"/>
<path fill-rule="evenodd" clip-rule="evenodd" d="M9.00008 4.66391C8.674 4.66391 8.39952 4.84081 8.21442 5.04411C8.02932 5.2474 7.89876 5.48433 7.77703 5.72038C7.53356 6.19249 7.29382 6.65951 7.12767 6.78022C6.96152 6.90094 6.44402 6.98556 5.91979 7.07122C5.65767 7.11405 5.39147 7.16495 5.14093 7.27818C4.89038 7.3914 4.63772 7.59723 4.53695 7.90735C4.43619 8.21747 4.51857 8.53318 4.65471 8.77204C4.79086 9.01091 4.9776 9.20741 5.16448 9.39613C5.53824 9.77358 5.90679 10.1463 5.97026 10.3416C6.03372 10.5369 5.95321 11.0547 5.87268 11.5797C5.83242 11.8423 5.79869 12.1122 5.82895 12.3855C5.8592 12.6588 5.97733 12.9627 6.24114 13.1544C6.50494 13.346 6.83151 13.3648 7.10075 13.3091C7.36999 13.2535 7.61381 13.1375 7.85105 13.0181C8.32552 12.7792 8.79471 12.5436 9.00008 12.5436C9.20545 12.5436 9.67286 12.7792 10.1473 13.0181C10.3846 13.1375 10.6301 13.2535 10.8993 13.3091C11.1686 13.3648 11.4951 13.346 11.759 13.1544C12.0228 12.9627 12.1409 12.6588 12.1711 12.3855C12.2014 12.1122 12.1677 11.8423 12.1274 11.5797C12.0469 11.0547 11.9664 10.5369 12.0298 10.3416C12.0933 10.1463 12.4618 9.77358 12.8356 9.39613C13.0225 9.20741 13.2092 9.01091 13.3454 8.77204C13.4815 8.53318 13.5639 8.21747 13.4631 7.90735C13.3624 7.59723 13.1097 7.3914 12.8592 7.27818C12.6086 7.16495 12.3424 7.11405 12.0803 7.07122C11.5561 6.98556 11.0386 6.90094 10.8724 6.78022C10.7063 6.65951 10.4665 6.19249 10.2231 5.72038C10.1013 5.48433 9.97078 5.2474 9.78567 5.04411C9.60057 4.84081 9.32616 4.66391 9.00008 4.66391Z" fill="#FFCA28"/>
<path fill-rule="evenodd" clip-rule="evenodd" d="M9.00012 4.66391C8.8605 4.66391 8.73113 4.69759 8.6134 4.75063C8.77061 4.82148 8.90643 4.92786 9.01228 5.04411C9.19738 5.2474 9.32794 5.48433 9.44967 5.72038C9.69314 6.19249 9.93288 6.65951 10.099 6.78022C10.2652 6.90093 10.7827 6.98556 11.3069 7.07122C11.569 7.11405 11.8352 7.16495 12.0858 7.27818C12.3363 7.3914 12.589 7.59723 12.6897 7.90735C12.7905 8.21747 12.7081 8.53318 12.572 8.77204C12.4358 9.01091 12.2491 9.20741 12.0622 9.39613C11.6885 9.77358 11.3199 10.1463 11.2564 10.3416C11.193 10.5369 11.2735 11.0547 11.354 11.5797C11.3943 11.8423 11.428 12.1122 11.3978 12.3855C11.3675 12.6588 11.2494 12.9627 10.9856 13.1544C10.9145 13.2059 10.8388 13.2441 10.761 13.2726C10.8068 13.2857 10.8523 13.2994 10.8994 13.3091C11.1686 13.3648 11.4952 13.346 11.759 13.1544C12.0228 12.9627 12.1409 12.6588 12.1712 12.3855C12.2014 12.1122 12.1677 11.8423 12.1274 11.5797C12.0469 11.0547 11.9664 10.5369 12.0299 10.3416C12.0933 10.1463 12.4619 9.77358 12.8357 9.39613C13.0225 9.20741 13.2093 9.01091 13.3454 8.77204C13.4816 8.53318 13.5639 8.21747 13.4632 7.90735C13.3624 7.59723 13.1098 7.3914 12.8592 7.27818C12.6087 7.16495 12.3425 7.11405 12.0803 7.07122C11.5561 6.98556 11.0386 6.90093 10.8725 6.78022C10.7063 6.65951 10.4666 6.19249 10.2231 5.72038C10.1014 5.48433 9.97082 5.2474 9.78571 5.04411C9.60061 4.84081 9.3262 4.66391 9.00012 4.66391Z" fill="#FFC107"/>
</svg>
