<svg width="18" height="18" viewBox="0 0 18 18" fill="none" xmlns="http://www.w3.org/2000/svg">
<g clip-path="url(#clip0_5_49)">
<path d="M14.6759 2.74502L13.4249 5.91602C13.4017 5.97722 13.3587 6.02885 13.3026 6.06259C13.2465 6.09633 13.1808 6.11022 13.1159 6.10202L9.72886 5.69702C9.6656 5.68889 9.60636 5.66152 9.55918 5.61861C9.51199 5.5757 9.47913 5.51933 9.46506 5.45712C9.45098 5.39492 9.45636 5.32989 9.48047 5.27084C9.50458 5.2118 9.54626 5.16159 9.59985 5.12702L10.1159 4.82102L8.85585 2.70602L6.91185 5.96402C6.88614 6.00689 6.8521 6.04418 6.81173 6.07368C6.77136 6.10317 6.72549 6.12427 6.67683 6.13574C6.62816 6.14721 6.5777 6.1488 6.52841 6.14043C6.47912 6.13207 6.43201 6.1139 6.38985 6.08702L3.47385 4.24502C3.39124 4.19249 3.33244 4.10975 3.31002 4.01445C3.2876 3.91916 3.30333 3.81887 3.35385 3.73502L4.88385 1.16702C5.04162 0.902738 5.26525 0.683918 5.53291 0.53195C5.80056 0.379981 6.10307 0.300067 6.41086 0.300019H11.2859C11.5979 0.299764 11.9047 0.380657 12.1761 0.53476C12.4475 0.688862 12.6742 0.910878 12.8339 1.17902L13.7219 2.67002L14.2379 2.36102C14.2936 2.32982 14.3576 2.31666 14.4211 2.32333C14.4846 2.33001 14.5445 2.35619 14.5925 2.39829C14.6405 2.44039 14.6743 2.49633 14.6892 2.55842C14.7042 2.62051 14.6995 2.6857 14.6759 2.74502Z" fill="#39B84F"/>
<path d="M17.4478 11.733L14.9488 15.921C14.7896 16.1896 14.563 16.4119 14.2916 16.5661C14.0201 16.7202 13.713 16.8009 13.4008 16.8H11.6998V17.4C11.6985 17.4638 11.6774 17.5256 11.6394 17.5768C11.6014 17.6281 11.5484 17.6662 11.4877 17.686C11.4271 17.7058 11.3618 17.7062 11.3009 17.6872C11.24 17.6682 11.1865 17.6308 11.1478 17.58L9.06284 14.88C9.02275 14.8286 9.00098 14.7652 9.00098 14.7C9.00098 14.6348 9.02275 14.5715 9.06284 14.52L11.1448 11.82C11.1841 11.7693 11.238 11.732 11.2992 11.713C11.3604 11.6941 11.426 11.6945 11.487 11.7142C11.548 11.7339 11.6015 11.7719 11.6401 11.823C11.6787 11.8742 11.7006 11.936 11.7028 12L11.6998 12.6H14.1298L12.3268 9.26403C12.3032 9.21959 12.2887 9.1709 12.2841 9.12079C12.2795 9.07068 12.2848 9.02016 12.2999 8.97215C12.315 8.92414 12.3395 8.87961 12.3719 8.84113C12.4043 8.80266 12.4441 8.77101 12.4888 8.74803L15.5638 7.19103C15.6512 7.1465 15.7525 7.13789 15.8461 7.16704C15.9397 7.19619 16.0182 7.26078 16.0648 7.34703L17.4868 9.97803C17.6328 10.2489 17.7059 10.5531 17.6991 10.8607C17.6922 11.1683 17.6057 11.4689 17.4478 11.733Z" fill="#39B84F"/>
<path d="M8.85585 2.70602L6.91185 5.96402C6.88614 6.00689 6.8521 6.04418 6.81173 6.07368C6.77136 6.10317 6.72549 6.12427 6.67683 6.13574C6.62816 6.14721 6.5777 6.1488 6.52841 6.14043C6.47912 6.13207 6.43201 6.1139 6.38985 6.08702L3.47385 4.24502C3.39124 4.19249 3.33244 4.10975 3.31002 4.01445C3.2876 3.91916 3.30333 3.81887 3.35385 3.73502L4.88385 1.16702C5.04162 0.902738 5.26525 0.683917 5.53291 0.531949C5.80056 0.379981 6.10307 0.300066 6.41086 0.300018C6.7182 0.30227 7.01986 0.383118 7.28714 0.534874C7.55442 0.686629 7.77843 0.904244 7.93785 1.16702L8.85585 2.70602Z" fill="#3B7944"/>
<path d="M17.4478 11.733C17.2885 11.9959 17.0645 12.2136 16.7972 12.3654C16.5299 12.5171 16.2282 12.5979 15.9208 12.6H14.1298L12.3268 9.26403C12.3032 9.21959 12.2887 9.1709 12.2841 9.12079C12.2795 9.07068 12.2848 9.02016 12.2999 8.97215C12.315 8.92414 12.3394 8.87961 12.3719 8.84113C12.4043 8.80266 12.4441 8.77101 12.4888 8.74803L15.5638 7.19103C15.6512 7.1465 15.7525 7.13789 15.8461 7.16704C15.9397 7.19619 16.0182 7.26078 16.0648 7.34703L17.4868 9.97803C17.6328 10.2489 17.7059 10.5531 17.699 10.8607C17.6922 11.1683 17.6056 11.4689 17.4478 11.733Z" fill="#3B7944"/>
<path d="M7.49981 12.6H3.86981L5.02181 10.461L5.54981 10.749C5.60716 10.7774 5.67187 10.7875 5.73513 10.7778C5.7984 10.7681 5.85714 10.7392 5.90337 10.6949C5.9496 10.6506 5.98107 10.5932 5.99349 10.5304C6.00591 10.4676 5.99869 10.4026 5.97281 10.344L4.58381 7.23003C4.55762 7.17002 4.51204 7.12054 4.45438 7.08954C4.39671 7.05853 4.33031 7.04778 4.26581 7.05903L0.899806 7.61403C0.836734 7.62373 0.778272 7.6529 0.732599 7.69746C0.686926 7.74203 0.656329 7.79976 0.645088 7.86257C0.633847 7.92539 0.642526 7.99015 0.669909 8.04779C0.697293 8.10543 0.742011 8.15306 0.797806 8.18403L1.32581 8.46903L0.515806 9.96603C0.366902 10.2403 0.292175 10.5487 0.299015 10.8607C0.305855 11.1727 0.394025 11.4775 0.554806 11.745L3.05681 15.933C3.21861 16.1977 3.44563 16.4164 3.71614 16.5682C3.98666 16.72 4.29161 16.7998 4.60181 16.8H7.49981C7.57937 16.8 7.65568 16.7684 7.71194 16.7122C7.7682 16.6559 7.79981 16.5796 7.79981 16.5V12.9C7.79981 12.8205 7.7682 12.7442 7.71194 12.6879C7.65568 12.6316 7.57937 12.6 7.49981 12.6Z" fill="#39B84F"/>
<path d="M7.79988 12.9V16.5C7.79988 16.5796 7.76827 16.6559 7.71201 16.7122C7.65575 16.7684 7.57944 16.8 7.49988 16.8H4.60188C4.29264 16.8031 3.98795 16.7254 3.71786 16.5748C3.44778 16.4242 3.22163 16.2057 3.06171 15.941C2.9018 15.6763 2.81366 15.3745 2.80597 15.0653C2.79828 14.7562 2.87132 14.4504 3.01788 14.178L3.86988 12.6H7.49988C7.57944 12.6 7.65575 12.6316 7.71201 12.6879C7.76827 12.7442 7.79988 12.8205 7.79988 12.9Z" fill="#3B7944"/>
</g>
<defs>
<clipPath id="clip0_5_49">
<rect width="18" height="18" fill="white"/>
</clipPath>
</defs>
</svg>
